<?xml version="1.0" encoding="UTF-8"?>
<svg width="32px" height="21px" viewBox="0 0 32 21" version="1.1" xmlns="http://www.w3.org/2000/svg" xmlns:xlink="http://www.w3.org/1999/xlink">
    <!-- Generator: Sketch 46.2 (44496) - http://www.bohemiancoding.com/sketch -->
    <title>Page 1</title>
    <desc>Created with Sketch.</desc>
    <defs></defs>
    <g id="Page-1" stroke="none" stroke-width="1" fill="none" fill-rule="evenodd">
        <g id="Desktop" transform="translate(-247.000000, -150.000000)">
            <g id="Page-1" transform="translate(247.000000, 150.000000)">
                <polygon id="Fill-1" fill="#FFFFFF" points="0 21 31.999 21 31.999 0 0 0"></polygon>
                <g id="Group-14" transform="translate(8.000000, 0.000000)">
                    <path d="M10.9803,16.7579 C10.9803,16.7579 11.8463,14.1999 14.2393,13.7509 C14.2393,13.7509 14.4963,15.3369 13.1563,16.5369 C11.8163,17.7369 10.9803,16.7579 10.9803,16.7579" id="Fill-2" fill="#FF7626"></path>
                    <path d="M10.3792,8.194 C10.1342,8.173 9.0042,5.275 9.5882,2.363 C9.5882,2.363 12.3852,2.394 13.1442,5.012 C13.5312,6.351 11.7682,8.316 10.3792,8.194" id="Fill-4" fill="#FF7626"></path>
                    <path d="M12.1141,0.5118 C14.1011,0.6858 15.8041,3.1668 15.5591,5.9758 C15.3131,8.7848 14.9001,9.4498 14.6571,11.0288 C14.4141,12.6088 14.3561,13.5488 14.0691,14.9638 C13.7831,16.3788 12.7311,17.1548 11.5531,17.0518 C10.3761,16.9488 9.4681,16.0268 9.6411,14.0418 C9.8151,12.0568 10.6801,10.5548 10.4611,9.1078 C10.2421,7.6588 9.4301,6.7788 9.4681,4.6898 C9.5241,1.5158 10.4751,0.3678 12.1141,0.5118 Z" id="Stroke-6" stroke="#7053FF" stroke-width="0.5"></path>
                    <path d="M5.0199,20.1236 C5.0199,20.1236 4.1539,17.5656 1.7609,17.1166 C1.7609,17.1166 1.5039,18.7026 2.8439,19.9026 C4.1839,21.1026 5.0199,20.1236 5.0199,20.1236" id="Fill-8" fill="#FF7626"></path>
                    <path d="M5.6204,11.5597 C5.8654,11.5387 6.9954,8.6407 6.4114,5.7287 C6.4114,5.7287 3.6154,5.7597 2.8564,8.3777 C2.4684,9.7167 4.2314,11.6817 5.6204,11.5597" id="Fill-10" fill="#FF7626"></path>
                    <path d="M3.8861,3.8775 C1.8991,4.0515 0.1951,6.5325 0.4411,9.3415 C0.6871,12.1505 1.1001,12.8155 1.3431,14.3945 C1.5861,15.9745 1.6441,16.9145 1.9301,18.3295 C2.2171,19.7445 3.2691,20.5205 4.4471,20.4175 C5.6241,20.3145 6.5321,19.3925 6.3591,17.4075 C6.1851,15.4225 5.3201,13.9205 5.5391,12.4735 C5.7581,11.0245 6.5691,10.1445 6.5321,8.0555 C6.4761,4.8815 5.5251,3.7335 3.8861,3.8775 Z" id="Stroke-12" stroke="#7053FF" stroke-width="0.5"></path>
                </g>
            </g>
        </g>
    </g>
</svg>